<mxfile host="app.diagrams.net" agent="Mozilla/5.0 (Windows NT 10.0; Win64; x64) AppleWebKit/537.36 (KHTML, like Gecko) Chrome/134.0.0.0 Safari/537.36 Edg/134.0.0.0" version="26.2.3">
  <diagram name="Page-1" id="e7e014a7-5840-1c2e-5031-d8a46d1fe8dd">
    <mxGraphModel dx="1144" dy="574" grid="1" gridSize="10" guides="1" tooltips="1" connect="1" arrows="1" fold="1" page="1" pageScale="1" pageWidth="1169" pageHeight="826" background="none" math="0" shadow="0">
      <root>
        <mxCell id="0" />
        <mxCell id="1" parent="0" />
        <mxCell id="2" value="Пользователь" style="swimlane;whiteSpace=wrap;startSize=23;" parent="1" vertex="1">
          <mxGeometry x="110" y="128" width="334.5" height="982" as="geometry" />
        </mxCell>
        <mxCell id="5" value="" style="ellipse;shape=startState;fillColor=#000000;strokeColor=#ff0000;" parent="2" vertex="1">
          <mxGeometry x="112.75" y="40" width="30" height="30" as="geometry" />
        </mxCell>
        <mxCell id="6" value="" style="edgeStyle=elbowEdgeStyle;elbow=horizontal;verticalAlign=bottom;endArrow=open;endSize=8;strokeColor=#FF0000;endFill=1;rounded=0" parent="2" source="5" target="7" edge="1">
          <mxGeometry x="100" y="40" as="geometry">
            <mxPoint x="115" y="110" as="targetPoint" />
          </mxGeometry>
        </mxCell>
        <mxCell id="ZqDQxf4k58DNmJKg_V-q-10" style="edgeStyle=orthogonalEdgeStyle;rounded=0;orthogonalLoop=1;jettySize=auto;html=1;entryX=0.5;entryY=0;entryDx=0;entryDy=0;" edge="1" parent="2" source="7" target="ZqDQxf4k58DNmJKg_V-q-7">
          <mxGeometry relative="1" as="geometry" />
        </mxCell>
        <mxCell id="7" value="from DPro import IDProcessing" style="" parent="2" vertex="1">
          <mxGeometry x="5.5" y="110" width="244.5" height="50" as="geometry" />
        </mxCell>
        <mxCell id="Www_5-nyKny7o5BCBHuy-42" value="Запрос поиска ошибок в датасете" style="html=1;whiteSpace=wrap;rotation=0;" parent="2" vertex="1">
          <mxGeometry x="190" y="381" width="120" height="50" as="geometry" />
        </mxCell>
        <mxCell id="Www_5-nyKny7o5BCBHuy-63" value="Запрос методов обработки" style="html=1;whiteSpace=wrap;rotation=0;" parent="2" vertex="1">
          <mxGeometry x="190" y="202" width="114.5" height="50" as="geometry" />
        </mxCell>
        <mxCell id="Www_5-nyKny7o5BCBHuy-81" value="" style="ellipse;html=1;shape=endState;fillColor=#000000;strokeColor=#ff0000;" parent="2" vertex="1">
          <mxGeometry x="71.38" y="942" width="30" height="30" as="geometry" />
        </mxCell>
        <mxCell id="kiZdAhzqdypbwGI21Btx-86" style="edgeStyle=orthogonalEdgeStyle;rounded=0;orthogonalLoop=1;jettySize=auto;html=1;exitX=0.5;exitY=0;exitDx=0;exitDy=0;entryX=1;entryY=0.5;entryDx=0;entryDy=0;" parent="2" source="kiZdAhzqdypbwGI21Btx-72" target="kiZdAhzqdypbwGI21Btx-84" edge="1">
          <mxGeometry relative="1" as="geometry" />
        </mxCell>
        <mxCell id="kiZdAhzqdypbwGI21Btx-72" value="Получение ответа" style="rounded=0;whiteSpace=wrap;html=1;" parent="2" vertex="1">
          <mxGeometry x="154.13" y="832" width="114.5" height="60" as="geometry" />
        </mxCell>
        <mxCell id="kiZdAhzqdypbwGI21Btx-88" style="edgeStyle=orthogonalEdgeStyle;rounded=0;orthogonalLoop=1;jettySize=auto;html=1;entryX=0.5;entryY=0;entryDx=0;entryDy=0;" parent="2" source="kiZdAhzqdypbwGI21Btx-84" target="Www_5-nyKny7o5BCBHuy-81" edge="1">
          <mxGeometry relative="1" as="geometry" />
        </mxCell>
        <mxCell id="kiZdAhzqdypbwGI21Btx-89" value="Нет" style="edgeLabel;html=1;align=center;verticalAlign=middle;resizable=0;points=[];" parent="kiZdAhzqdypbwGI21Btx-88" vertex="1" connectable="0">
          <mxGeometry x="-0.5693" relative="1" as="geometry">
            <mxPoint x="-22" y="-23" as="offset" />
          </mxGeometry>
        </mxCell>
        <mxCell id="ZqDQxf4k58DNmJKg_V-q-11" style="edgeStyle=orthogonalEdgeStyle;rounded=0;orthogonalLoop=1;jettySize=auto;html=1;" edge="1" parent="2" source="kiZdAhzqdypbwGI21Btx-84">
          <mxGeometry relative="1" as="geometry">
            <mxPoint x="86.375" y="372" as="targetPoint" />
          </mxGeometry>
        </mxCell>
        <mxCell id="kiZdAhzqdypbwGI21Btx-84" value="Продолжить обработку?" style="rhombus;whiteSpace=wrap;html=1;" parent="2" vertex="1">
          <mxGeometry x="39.99999999999999" y="682" width="92.75" height="98" as="geometry" />
        </mxCell>
        <mxCell id="ZqDQxf4k58DNmJKg_V-q-8" style="edgeStyle=orthogonalEdgeStyle;rounded=0;orthogonalLoop=1;jettySize=auto;html=1;entryX=0;entryY=0.5;entryDx=0;entryDy=0;" edge="1" parent="2" source="ZqDQxf4k58DNmJKg_V-q-7" target="Www_5-nyKny7o5BCBHuy-63">
          <mxGeometry relative="1" as="geometry" />
        </mxCell>
        <mxCell id="ZqDQxf4k58DNmJKg_V-q-9" style="edgeStyle=orthogonalEdgeStyle;rounded=0;orthogonalLoop=1;jettySize=auto;html=1;entryX=0;entryY=0.5;entryDx=0;entryDy=0;" edge="1" parent="2" source="ZqDQxf4k58DNmJKg_V-q-7" target="Www_5-nyKny7o5BCBHuy-42">
          <mxGeometry relative="1" as="geometry" />
        </mxCell>
        <mxCell id="ZqDQxf4k58DNmJKg_V-q-7" value="Выбор" style="rhombus;whiteSpace=wrap;html=1;" vertex="1" parent="2">
          <mxGeometry x="40" y="272" width="92.75" height="98" as="geometry" />
        </mxCell>
        <mxCell id="3" value="IDProcessing" style="swimlane;whiteSpace=wrap" parent="1" vertex="1">
          <mxGeometry x="444.5" y="128" width="355.5" height="982" as="geometry" />
        </mxCell>
        <mxCell id="kiZdAhzqdypbwGI21Btx-46" style="edgeStyle=orthogonalEdgeStyle;rounded=0;orthogonalLoop=1;jettySize=auto;html=1;entryX=0.5;entryY=0;entryDx=0;entryDy=0;" parent="3" source="Www_5-nyKny7o5BCBHuy-57" target="kiZdAhzqdypbwGI21Btx-44" edge="1">
          <mxGeometry relative="1" as="geometry" />
        </mxCell>
        <mxCell id="kiZdAhzqdypbwGI21Btx-48" value="Ответ" style="edgeLabel;html=1;align=center;verticalAlign=middle;resizable=0;points=[];" parent="kiZdAhzqdypbwGI21Btx-46" vertex="1" connectable="0">
          <mxGeometry x="-0.1153" relative="1" as="geometry">
            <mxPoint as="offset" />
          </mxGeometry>
        </mxCell>
        <mxCell id="Www_5-nyKny7o5BCBHuy-57" value="Метод поиска" style="verticalAlign=top;align=left;spacingTop=8;spacingLeft=2;spacingRight=12;shape=cube;size=10;direction=south;fontStyle=4;html=1;whiteSpace=wrap;" parent="3" vertex="1">
          <mxGeometry x="100.5" y="482" width="104.5" height="73" as="geometry" />
        </mxCell>
        <mxCell id="kiZdAhzqdypbwGI21Btx-45" style="edgeStyle=orthogonalEdgeStyle;rounded=0;orthogonalLoop=1;jettySize=auto;html=1;entryX=1;entryY=0.5;entryDx=0;entryDy=0;" parent="3" source="Www_5-nyKny7o5BCBHuy-76" target="kiZdAhzqdypbwGI21Btx-44" edge="1">
          <mxGeometry relative="1" as="geometry">
            <Array as="points">
              <mxPoint x="306" y="112" />
              <mxPoint x="306" y="652" />
            </Array>
          </mxGeometry>
        </mxCell>
        <mxCell id="kiZdAhzqdypbwGI21Btx-47" value="Ответ" style="edgeLabel;html=1;align=center;verticalAlign=middle;resizable=0;points=[];" parent="kiZdAhzqdypbwGI21Btx-45" vertex="1" connectable="0">
          <mxGeometry x="-0.8917" y="1" relative="1" as="geometry">
            <mxPoint y="-9" as="offset" />
          </mxGeometry>
        </mxCell>
        <mxCell id="Www_5-nyKny7o5BCBHuy-76" value="Методы обработки" style="verticalAlign=top;align=left;spacingTop=8;spacingLeft=2;spacingRight=12;shape=cube;size=10;direction=south;fontStyle=4;html=1;whiteSpace=wrap;" parent="3" vertex="1">
          <mxGeometry x="95.5" y="72" width="114.5" height="79.5" as="geometry" />
        </mxCell>
        <mxCell id="kiZdAhzqdypbwGI21Btx-29" value="Разделение параметров. Создание экземпляров методов" style="rounded=0;whiteSpace=wrap;html=1;" parent="3" vertex="1">
          <mxGeometry x="85.5" y="202" width="134.5" height="60" as="geometry" />
        </mxCell>
        <mxCell id="kiZdAhzqdypbwGI21Btx-42" style="edgeStyle=orthogonalEdgeStyle;rounded=0;orthogonalLoop=1;jettySize=auto;html=1;" parent="3" source="kiZdAhzqdypbwGI21Btx-36" target="Www_5-nyKny7o5BCBHuy-57" edge="1">
          <mxGeometry relative="1" as="geometry" />
        </mxCell>
        <mxCell id="kiZdAhzqdypbwGI21Btx-43" value="параметры поиска" style="edgeLabel;html=1;align=center;verticalAlign=middle;resizable=0;points=[];" parent="kiZdAhzqdypbwGI21Btx-42" vertex="1" connectable="0">
          <mxGeometry x="-0.3333" y="-3" relative="1" as="geometry">
            <mxPoint as="offset" />
          </mxGeometry>
        </mxCell>
        <mxCell id="kiZdAhzqdypbwGI21Btx-36" value="Разделение параметров. Выгрузка данных в модель" style="rounded=0;whiteSpace=wrap;html=1;" parent="3" vertex="1">
          <mxGeometry x="85.5" y="376" width="134.5" height="60" as="geometry" />
        </mxCell>
        <mxCell id="kiZdAhzqdypbwGI21Btx-37" style="edgeStyle=orthogonalEdgeStyle;rounded=0;orthogonalLoop=1;jettySize=auto;html=1;entryX=0.981;entryY=0.505;entryDx=0;entryDy=0;entryPerimeter=0;" parent="3" source="kiZdAhzqdypbwGI21Btx-29" target="Www_5-nyKny7o5BCBHuy-76" edge="1">
          <mxGeometry relative="1" as="geometry" />
        </mxCell>
        <mxCell id="kiZdAhzqdypbwGI21Btx-39" value="параметры метода" style="edgeLabel;html=1;align=center;verticalAlign=middle;resizable=0;points=[];" parent="kiZdAhzqdypbwGI21Btx-37" vertex="1" connectable="0">
          <mxGeometry x="0.1116" y="2" relative="1" as="geometry">
            <mxPoint as="offset" />
          </mxGeometry>
        </mxCell>
        <mxCell id="kiZdAhzqdypbwGI21Btx-66" style="edgeStyle=orthogonalEdgeStyle;rounded=0;orthogonalLoop=1;jettySize=auto;html=1;" parent="3" source="kiZdAhzqdypbwGI21Btx-44" edge="1">
          <mxGeometry relative="1" as="geometry">
            <mxPoint x="152.80303030303048" y="712.0530303030303" as="targetPoint" />
          </mxGeometry>
        </mxCell>
        <mxCell id="kiZdAhzqdypbwGI21Btx-44" value="Обработка ответа" style="rounded=0;whiteSpace=wrap;html=1;" parent="3" vertex="1">
          <mxGeometry x="92.75" y="622" width="120" height="60" as="geometry" />
        </mxCell>
        <mxCell id="kiZdAhzqdypbwGI21Btx-77" style="edgeStyle=orthogonalEdgeStyle;rounded=0;orthogonalLoop=1;jettySize=auto;html=1;entryX=0;entryY=0.5;entryDx=0;entryDy=0;" parent="3" source="kiZdAhzqdypbwGI21Btx-75" target="kiZdAhzqdypbwGI21Btx-76" edge="1">
          <mxGeometry relative="1" as="geometry" />
        </mxCell>
        <mxCell id="kiZdAhzqdypbwGI21Btx-78" value="Да" style="edgeLabel;html=1;align=center;verticalAlign=middle;resizable=0;points=[];" parent="kiZdAhzqdypbwGI21Btx-77" vertex="1" connectable="0">
          <mxGeometry x="0.2964" y="1" relative="1" as="geometry">
            <mxPoint x="-5" y="-9" as="offset" />
          </mxGeometry>
        </mxCell>
        <mxCell id="kiZdAhzqdypbwGI21Btx-80" style="edgeStyle=orthogonalEdgeStyle;rounded=0;orthogonalLoop=1;jettySize=auto;html=1;" parent="3" source="kiZdAhzqdypbwGI21Btx-75" target="kiZdAhzqdypbwGI21Btx-79" edge="1">
          <mxGeometry relative="1" as="geometry" />
        </mxCell>
        <mxCell id="kiZdAhzqdypbwGI21Btx-82" value="Нет" style="edgeLabel;html=1;align=center;verticalAlign=middle;resizable=0;points=[];" parent="kiZdAhzqdypbwGI21Btx-80" vertex="1" connectable="0">
          <mxGeometry x="-0.1606" y="1" relative="1" as="geometry">
            <mxPoint x="-15" y="-17" as="offset" />
          </mxGeometry>
        </mxCell>
        <mxCell id="kiZdAhzqdypbwGI21Btx-75" value="inplace == True" style="rhombus;whiteSpace=wrap;html=1;" parent="3" vertex="1">
          <mxGeometry x="100.5" y="712" width="107.25" height="80" as="geometry" />
        </mxCell>
        <mxCell id="kiZdAhzqdypbwGI21Btx-81" style="edgeStyle=orthogonalEdgeStyle;rounded=0;orthogonalLoop=1;jettySize=auto;html=1;entryX=1;entryY=0.5;entryDx=0;entryDy=0;" parent="3" source="kiZdAhzqdypbwGI21Btx-76" target="kiZdAhzqdypbwGI21Btx-79" edge="1">
          <mxGeometry relative="1" as="geometry">
            <Array as="points">
              <mxPoint x="276" y="862" />
            </Array>
          </mxGeometry>
        </mxCell>
        <mxCell id="kiZdAhzqdypbwGI21Btx-76" value="Перезапись исходного файла" style="rounded=0;whiteSpace=wrap;html=1;" parent="3" vertex="1">
          <mxGeometry x="235.5" y="722" width="105" height="60" as="geometry" />
        </mxCell>
        <mxCell id="kiZdAhzqdypbwGI21Btx-79" value="Формирование ответа пользователю" style="rounded=0;whiteSpace=wrap;html=1;" parent="3" vertex="1">
          <mxGeometry x="94.13" y="832" width="120" height="60" as="geometry" />
        </mxCell>
        <mxCell id="kiZdAhzqdypbwGI21Btx-34" style="edgeStyle=orthogonalEdgeStyle;rounded=0;orthogonalLoop=1;jettySize=auto;html=1;entryX=0;entryY=0.5;entryDx=0;entryDy=0;" parent="1" source="Www_5-nyKny7o5BCBHuy-63" target="kiZdAhzqdypbwGI21Btx-29" edge="1">
          <mxGeometry relative="1" as="geometry">
            <Array as="points">
              <mxPoint x="440" y="360" />
              <mxPoint x="440" y="360" />
            </Array>
          </mxGeometry>
        </mxCell>
        <mxCell id="kiZdAhzqdypbwGI21Btx-38" value="параметры" style="edgeLabel;html=1;align=center;verticalAlign=middle;resizable=0;points=[];" parent="kiZdAhzqdypbwGI21Btx-34" vertex="1" connectable="0">
          <mxGeometry x="-0.2929" y="-2" relative="1" as="geometry">
            <mxPoint x="25" y="-7" as="offset" />
          </mxGeometry>
        </mxCell>
        <mxCell id="kiZdAhzqdypbwGI21Btx-40" style="edgeStyle=orthogonalEdgeStyle;rounded=0;orthogonalLoop=1;jettySize=auto;html=1;entryX=0;entryY=0.5;entryDx=0;entryDy=0;" parent="1" source="Www_5-nyKny7o5BCBHuy-42" target="kiZdAhzqdypbwGI21Btx-36" edge="1">
          <mxGeometry relative="1" as="geometry" />
        </mxCell>
        <mxCell id="kiZdAhzqdypbwGI21Btx-71" value="параметры" style="edgeLabel;html=1;align=center;verticalAlign=middle;resizable=0;points=[];" parent="kiZdAhzqdypbwGI21Btx-40" vertex="1" connectable="0">
          <mxGeometry x="-0.2606" y="-1" relative="1" as="geometry">
            <mxPoint x="19" y="-5" as="offset" />
          </mxGeometry>
        </mxCell>
        <mxCell id="kiZdAhzqdypbwGI21Btx-83" style="edgeStyle=orthogonalEdgeStyle;rounded=0;orthogonalLoop=1;jettySize=auto;html=1;entryX=1;entryY=0.5;entryDx=0;entryDy=0;" parent="1" source="kiZdAhzqdypbwGI21Btx-79" target="kiZdAhzqdypbwGI21Btx-72" edge="1">
          <mxGeometry relative="1" as="geometry" />
        </mxCell>
      </root>
    </mxGraphModel>
  </diagram>
</mxfile>
